<svg xmlns="http://www.w3.org/2000/svg" xmlns:xlink="http://www.w3.org/1999/xlink" version="1.1" viewBox="0 0 1600 1400" style="background: #111111"><defs joint-selector="defs"></defs><g  joint-selector="layers" transform="matrix(1,0,0,1,0,0)"><g ></g><g ><!--z-index:-5--><!--z-index:-4--><!--z-index:-3--><!--z-index:-2--><!--z-index:-1--><!--z-index:0--><!--z-index:1--><!--z-index:2--><!--z-index:3--><!--z-index:4--><!--z-index:5--><!--z-index:6--><!--z-index:7--><!--z-index:8--><!--z-index:9--><g   id="j_426"  transform="translate(20,1356)"><g id="v-5356"><text  id="v-5357" font-size="24px" xml:space="preserve" y="0.8em" font-weight="normal" text-anchor="start" fill="#cccccc" pointer-events="none" display="block" font-family="Open Sans, Tahoma, Arial"><tspan  dy="0" display="block">vendredi 17 juillet 2026 à 09:15 heure d’été d’Europe centrale</tspan></text></g></g><!--z-index:10--><g   id="j_425"  transform="translate(20,1322)"><g id="v-5354"><text  id="v-5355" font-size="24px" xml:space="preserve" y="0.8em" font-weight="normal" text-anchor="start" fill="#cccccc" pointer-events="none" display="block" font-family="Open Sans, Tahoma, Arial"><tspan  dy="0" display="block">GWRADAR Platform Overview</tspan></text></g></g><!--z-index:11--><g   id="j_424"  transform="translate(20,1276)"><g id="v-5352"><text  id="v-5353" font-size="36px" xml:space="preserve" y="0.8em" font-weight="normal" text-anchor="start" fill="#cccccc" pointer-events="none" display="block" font-family="Open Sans, Tahoma, Arial"><tspan  dy="0" display="block">System Landscape View</tspan></text></g></g><!--z-index:12--><g   id="j_427"  transform="translate(225,142)" style=""><g  id="v-5361" style="opacity: 1;"><rect  x="0" y="160" width="400" height="240" rx="70" id="v-5363" stroke-width="2" pointer-events="visiblePainted" fill="#111111" stroke="#cccccc" stroke-dasharray=""></rect><circle  cx="200" cy="88.88888888888889" r="88.88888888888889" id="v-5362" stroke-width="2" pointer-events="visiblePainted" fill="#111111" stroke="#cccccc" stroke-dasharray=""></circle><line  x1="80" y1="266.6666666666667" x2="80" y2="400" id="v-5369" stroke="#cccccc" stroke-width="1" stroke-dasharray=""></line><line  x1="320" y1="266.6666666666667" x2="320" y2="400" id="v-5370" stroke="#cccccc" stroke-width="1" stroke-dasharray=""></line><text  id="v-5364" font-size="30.799999999999997px" xml:space="preserve" y="234.4" font-weight="bold" text-anchor="middle" pointer-events="visible" font-family="Open Sans, Tahoma, Arial" fill="#ffffff" dominant-baseline="hanging" transform="matrix(1,0,0,1,200,0)"><tspan  dy="0">Player</tspan></text><text  id="v-5365" font-size="15.399999999999999px" xml:space="preserve" y="273.2" text-anchor="middle" font-family="Open Sans, Tahoma, Arial" fill="#ffffff" dominant-baseline="hanging" transform="matrix(1,0,0,1,200,0)" style="display: block;"><tspan  dy="0">[Person]</tspan></text><text  id="v-5366" font-size="22px" xml:space="preserve" y="303.6" text-anchor="middle" font-family="Open Sans, Tahoma, Arial" fill="#ffffff" dominant-baseline="hanging" transform="matrix(1,0,0,1,200,0)" style="display: block;"><tspan  dy="0">User that plays Guild Wars 2</tspan></text><g  id="v-5367" font-weight="normal" text-anchor="middle" color="#ffffff" transform="matrix(1,0,0,1,197.5,368)" display="none"><g ></g><g ></g><g ></g><g ></g></g><image  id="v-5368"></image></g></g><!--z-index:13--><g   id="j_428"  transform="translate(950,842)" style=""><g  id="v-5374" style="opacity: 1;"><rect  id="v-5375" rx="1" ry="1" stroke-width="2" pointer-events="visiblePainted" fill="#999999" stroke="#8a8a8a" stroke-dasharray="" width="450" height="300"></rect><text  id="v-5376" font-size="33.599999999999994px" xml:space="preserve" y="101.30000000000001" font-weight="bold" text-anchor="middle" pointer-events="visible" font-family="Open Sans, Tahoma, Arial" fill="#ffffff" dominant-baseline="hanging" transform="matrix(1,0,0,1,225,0)"><tspan  dy="0">Guild Wars 2 API</tspan></text><text  id="v-5377" font-size="16.799999999999997px" xml:space="preserve" y="142.9" text-anchor="middle" font-family="Open Sans, Tahoma, Arial" fill="#ffffff" dominant-baseline="hanging" transform="matrix(1,0,0,1,225,0)" style="display: block;"><tspan  dy="0">[Software System]</tspan></text><text  id="v-5378" font-size="24px" xml:space="preserve" y="174.7" text-anchor="middle" font-family="Open Sans, Tahoma, Arial" fill="#ffffff" dominant-baseline="hanging" transform="matrix(1,0,0,1,225,0)" style="display: block;"><tspan  dy="0">Guild Wars 2 REST API</tspan></text><g  id="v-5379" color="#ffffff" transform="matrix(1,0,0,1,210,268)" display="none"><g ></g><g ></g><g ></g><g  transform="translate(5 0)"><svg xmlns="http://www.w3.org/2000/svg" width="20" height="20" fill="currentColor" viewBox="0 0 16 16"><path d="M6.354 5.5H4a3 3 0 0 0 0 6h3a3 3 0 0 0 2.83-4H9c-.086 0-.17.01-.25.031A2 2 0 0 1 7 10.5H4a2 2 0 1 1 0-4h1.535c.218-.376.495-.714.82-1z"></path><path d="M9 5.5a3 3 0 0 0-2.83 4h1.098A2 2 0 0 1 9 6.5h3a2 2 0 1 1 0 4h-1.535a4.02 4.02 0 0 1-.82 1H12a3 3 0 1 0 0-6H9z"></path></svg></g></g><image  id="v-5380"></image></g></g><!--z-index:14--><g   id="j_429"  transform="translate(200,842)" style=""><g  id="v-5384" style="opacity: 1;"><rect  id="v-5385" rx="1" ry="1" stroke-width="2" pointer-events="visiblePainted" fill="#999999" stroke="#8a8a8a" stroke-dasharray="" width="450" height="300"></rect><text  id="v-5386" font-size="33.599999999999994px" xml:space="preserve" y="72.5" font-weight="bold" text-anchor="middle" pointer-events="visible" font-family="Open Sans, Tahoma, Arial" fill="#ffffff" dominant-baseline="hanging" transform="matrix(1,0,0,1,225,0)"><tspan  dy="0">Blish HUD</tspan></text><text  id="v-5387" font-size="16.799999999999997px" xml:space="preserve" y="114.1" text-anchor="middle" font-family="Open Sans, Tahoma, Arial" fill="#ffffff" dominant-baseline="hanging" transform="matrix(1,0,0,1,225,0)" style="display: block;"><tspan  dy="0">[Software System]</tspan></text><text  id="v-5388" font-size="24px" xml:space="preserve" y="145.89999999999998" text-anchor="middle" font-family="Open Sans, Tahoma, Arial" fill="#ffffff" dominant-baseline="hanging" transform="matrix(1,0,0,1,225,0)" style="display: block;"><tspan  dy="0">Guild Wars 2 overlay framework</tspan><tspan dy="1.2em" x="0" >that provides a platform and API</tspan><tspan dy="1.2em" x="0" >for modules</tspan></text><g  id="v-5389" color="#ffffff" transform="matrix(1,0,0,1,222.5,268)" display="none"><g ></g><g ></g><g ></g><g ></g></g><image  id="v-5390"></image></g></g><!--z-index:15--><g   id="j_430"  transform="translate(938,192)" style=""><g  id="v-5394" style="opacity: 1;"><rect  id="v-5395" rx="1" ry="1" stroke-width="2" pointer-events="visiblePainted" fill="#1168bd" stroke="#0f5eaa" stroke-dasharray="" width="450" height="300"></rect><text  id="v-5396" font-size="33.599999999999994px" xml:space="preserve" y="86.9" font-weight="bold" text-anchor="middle" pointer-events="visible" font-family="Open Sans, Tahoma, Arial" fill="#ffffff" dominant-baseline="hanging" transform="matrix(1,0,0,1,225,0)"><tspan  dy="0">GWRADAR.COM</tspan></text><text  id="v-5397" font-size="16.799999999999997px" xml:space="preserve" y="128.5" text-anchor="middle" font-family="Open Sans, Tahoma, Arial" fill="#ffffff" dominant-baseline="hanging" transform="matrix(1,0,0,1,225,0)" style="display: block;"><tspan  dy="0">[Software System]</tspan></text><text  id="v-5398" font-size="24px" xml:space="preserve" y="160.3" text-anchor="middle" font-family="Open Sans, Tahoma, Arial" fill="#ffffff" dominant-baseline="hanging" transform="matrix(1,0,0,1,225,0)" style="display: block;"><tspan  dy="0">Real-time tracking and telemetry</tspan><tspan dy="1.2em" x="0" >platform for Guild Wars 2 players</tspan></text><g  id="v-5399" color="#ffffff" transform="matrix(1,0,0,1,172.5,268)" display="none"><g  transform="translate(5 0)"><svg xmlns="http://www.w3.org/2000/svg" width="20" height="20" fill="currentColor" viewBox="0 0 16 16"><path fill-rule="evenodd" d="M6.5 12a5.5 5.5 0 1 0 0-11 5.5 5.5 0 0 0 0 11zM13 6.5a6.5 6.5 0 1 1-13 0 6.5 6.5 0 0 1 13 0z"></path><path d="M10.344 11.742c.03.04.062.078.098.115l3.85 3.85a1 1 0 0 0 1.415-1.414l-3.85-3.85a1.007 1.007 0 0 0-.115-.1 6.538 6.538 0 0 1-1.398 1.4z"></path><path fill-rule="evenodd" d="M6.5 3a.5.5 0 0 1 .5.5V6h2.5a.5.5 0 0 1 0 1H7v2.5a.5.5 0 0 1-1 0V7H3.5a.5.5 0 0 1 0-1H6V3.5a.5.5 0 0 1 .5-.5z"></path></svg></g><g  transform="translate(30 0)"><svg xmlns="http://www.w3.org/2000/svg" width="20" height="20" fill="currentColor" viewBox="0 0 16 16"><path d="M1 2.828c.885-.37 2.154-.769 3.388-.893 1.33-.134 2.458.063 3.112.752v9.746c-.935-.53-2.12-.603-3.213-.493-1.18.12-2.37.461-3.287.811V2.828zm7.5-.141c.654-.689 1.782-.886 3.112-.752 1.234.124 2.503.523 3.388.893v9.923c-.918-.35-2.107-.692-3.287-.81-1.094-.111-2.278-.039-3.213.492V2.687zM8 1.783C7.015.936 5.587.81 4.287.94c-1.514.153-3.042.672-3.994 1.105A.5.5 0 0 0 0 2.5v11a.5.5 0 0 0 .707.455c.882-.4 2.303-.881 3.68-1.02 1.409-.142 2.59.087 3.223.877a.5.5 0 0 0 .78 0c.633-.79 1.814-1.019 3.222-.877 1.378.139 2.8.62 3.681 1.02A.5.5 0 0 0 16 13.5v-11a.5.5 0 0 0-.293-.455c-.952-.433-2.48-.952-3.994-1.105C10.413.809 8.985.936 8 1.783z"></path></svg></g><g  transform="translate(55 0)"><svg xmlns="http://www.w3.org/2000/svg" width="20" height="20" fill="currentColor" viewBox="0 0 16 16"><path d="M5 10.5a.5.5 0 0 1 .5-.5h2a.5.5 0 0 1 0 1h-2a.5.5 0 0 1-.5-.5zm0-2a.5.5 0 0 1 .5-.5h5a.5.5 0 0 1 0 1h-5a.5.5 0 0 1-.5-.5zm0-2a.5.5 0 0 1 .5-.5h5a.5.5 0 0 1 0 1h-5a.5.5 0 0 1-.5-.5zm0-2a.5.5 0 0 1 .5-.5h5a.5.5 0 0 1 0 1h-5a.5.5 0 0 1-.5-.5z"></path><path d="M3 0h10a2 2 0 0 1 2 2v12a2 2 0 0 1-2 2H3a2 2 0 0 1-2-2v-1h1v1a1 1 0 0 0 1 1h10a1 1 0 0 0 1-1V2a1 1 0 0 0-1-1H3a1 1 0 0 0-1 1v1H1V2a2 2 0 0 1 2-2z"></path><path d="M1 5v-.5a.5.5 0 0 1 1 0V5h.5a.5.5 0 0 1 0 1h-2a.5.5 0 0 1 0-1H1zm0 3v-.5a.5.5 0 0 1 1 0V8h.5a.5.5 0 0 1 0 1h-2a.5.5 0 0 1 0-1H1zm0 3v-.5a.5.5 0 0 1 1 0v.5h.5a.5.5 0 0 1 0 1h-2a.5.5 0 0 1 0-1H1z"></path></svg></g><g  transform="translate(80 0)"><svg xmlns="http://www.w3.org/2000/svg" width="20" height="20" fill="currentColor" viewBox="0 0 16 16"><path d="M6.354 5.5H4a3 3 0 0 0 0 6h3a3 3 0 0 0 2.83-4H9c-.086 0-.17.01-.25.031A2 2 0 0 1 7 10.5H4a2 2 0 1 1 0-4h1.535c.218-.376.495-.714.82-1z"></path><path d="M9 5.5a3 3 0 0 0-2.83 4h1.098A2 2 0 0 1 9 6.5h3a2 2 0 1 1 0 4h-1.535a4.02 4.02 0 0 1-.82 1H12a3 3 0 1 0 0-6H9z"></path></svg></g></g><image  id="v-5400"></image></g></g><!--z-index:16--><g   id="j_431" ><path  stroke="#cccccc" d="M 425 542 L 425 842" id="v-5416" stroke-width="2" stroke-dasharray="8 8" fill="none" style="opacity: 1;"></path><path  fill="black" stroke="black" d="M 0 0 0 0" transform="matrix(6.123234262925839e-17,1,-1,6.123234262925839e-17,425,542)"></path><path  fill="#cccccc" stroke="#cccccc" d="M 20 0 L 0 10 L 20 20 z" id="v-5418" transform="matrix(-1.8369701465288538e-16,-1,1,-1.8369701465288538e-16,415,842)" style="opacity: 1;"></path><path  d="M 425 542 L 425 842" id="v-5417" fill="none" style="cursor: auto; pointer-events: visiblepainted;"></path><g ><g id="v-5407"  label-idx="0" cursor="move" transform="matrix(1,0,0,1,425,678.5999755859375)" style="cursor: default; opacity: 1;"><rect joint-selector="rect" id="v-5411" fill="#111111" rx="3" ry="3" pointer-events="none" width="189.39715576171875" height="90.69692611694336" transform="matrix(1,0,0,1,-94.69999694824219,-45.400001525878906)"></rect><text joint-selector="text" id="v-5410" font-size="24px" xml:space="preserve" y="0.8em" fill="#cccccc" text-anchor="middle" pointer-events="none" font-family="Open Sans, Tahoma, Arial" font-weight="normal" transform="matrix(1,0,0,1,0,-38.900001525878906)"><tspan  dy="0">Runs the overlay</tspan><tspan dy="1.2em" x="0" >alongside the</tspan><tspan dy="1.2em" x="0" >game client</tspan></text></g><g id="v-5408"  label-idx="1" cursor="move" transform="matrix(1,0,0,1,425,737.7999877929688)" style="cursor: default; opacity: 1;"><rect joint-selector="rect" id="v-5413" fill="#111111" rx="3" ry="3"  pointer-events="none" width="31.221433639526367" height="23.16784954071045" transform="matrix(1,0,0,1,-15.600000381469727,-11.600000381469727)" style="display: block;"></rect><text joint-selector="text" id="v-5412" font-size="16.799999999999997px" xml:space="preserve" y="0.8em" fill="#cccccc" text-anchor="middle" pointer-events="none"  font-family="Open Sans, Tahoma, Arial" font-weight="normal" transform="matrix(1,0,0,1,0,-6.800000190734863)" style="display: block;"><tspan  dy="0">[UI]</tspan></text></g><g id="v-5409"  label-idx="2" cursor="move" transform="matrix(1,0,0,1,415,746.2000122070312)" style="cursor: default; opacity: 1;"><rect joint-selector="rect" id="v-5415" fill="#ffffff" rx="3" ry="3"  width="0" height="0" transform="matrix(1,0,0,1,0,0)" display="none"></rect><text joint-selector="text" id="v-5414" fill="#000000" font-size="14" text-anchor="middle" pointer-events="none"></text></g></g><g  display="none" style="display: none;"></g><g  id="v-5420" display="none"><g  id="v-5405"><path  end="source" d="M 26 0 L 0 13 L 26 26 z"></path></g><g  id="v-5406"><path  end="target" d="M 26 0 L 0 13 L 26 26 z"></path></g></g><g  id="v-5419" display="none"><g  id="v-5404" transform="translate(425.00000000000006, 582) "><g  event="remove"><circle r="11"></circle><path transform="scale(.8) translate(-16, -16)" d="M24.778,21.419 19.276,15.917 24.777,10.415 21.949,7.585 16.447,13.087 10.945,7.585 8.117,10.415 13.618,15.917 8.116,21.419 10.946,24.248 16.447,18.746 21.948,24.248z"></path><title>Remove link.</title></g><g  event="link:options"><circle r="11" transform="translate(25)"></circle><path fill="white" transform="scale(.55) translate(29, -16)" d="M31.229,17.736c0.064-0.571,0.104-1.148,0.104-1.736s-0.04-1.166-0.104-1.737l-4.377-1.557c-0.218-0.716-0.504-1.401-0.851-2.05l1.993-4.192c-0.725-0.91-1.549-1.734-2.458-2.459l-4.193,1.994c-0.647-0.347-1.334-0.632-2.049-0.849l-1.558-4.378C17.165,0.708,16.588,0.667,16,0.667s-1.166,0.041-1.737,0.105L12.707,5.15c-0.716,0.217-1.401,0.502-2.05,0.849L6.464,4.005C5.554,4.73,4.73,5.554,4.005,6.464l1.994,4.192c-0.347,0.648-0.632,1.334-0.849,2.05l-4.378,1.557C0.708,14.834,0.667,15.412,0.667,16s0.041,1.165,0.105,1.736l4.378,1.558c0.217,0.715,0.502,1.401,0.849,2.049l-1.994,4.193c0.725,0.909,1.549,1.733,2.459,2.458l4.192-1.993c0.648,0.347,1.334,0.633,2.05,0.851l1.557,4.377c0.571,0.064,1.148,0.104,1.737,0.104c0.588,0,1.165-0.04,1.736-0.104l1.558-4.377c0.715-0.218,1.399-0.504,2.049-0.851l4.193,1.993c0.909-0.725,1.733-1.549,2.458-2.458l-1.993-4.193c0.347-0.647,0.633-1.334,0.851-2.049L31.229,17.736zM16,20.871c-2.69,0-4.872-2.182-4.872-4.871c0-2.69,2.182-4.872,4.872-4.872c2.689,0,4.871,2.182,4.871,4.872C20.871,18.689,18.689,20.871,16,20.871z"></path><title>Link options.</title></g></g></g></g><!--z-index:17--><g   id="j_432" ><path  stroke="#cccccc" d="M 993 492 L 595 842" id="v-5439" stroke-width="2" stroke-dasharray="8 8" fill="none" style="opacity: 1;"></path><path  fill="black" stroke="black" d="M 0 0 0 0" transform="matrix(-0.7504271864891052,0.6609531044960022,-0.6609531044960022,-0.7504271864891052,992.6900024414062,492)"></path><path  fill="#cccccc" stroke="#cccccc" d="M 20 0 L 0 10 L 20 20 z" id="v-5441" transform="matrix(0.7504273653030396,-0.6609529256820679,0.6609529256820679,0.7504273653030396,588.700439453125,834.4957275390625)" style="opacity: 1;"></path><path  d="M 993 492 L 595 842" id="v-5440" fill="none" style="cursor: auto; pointer-events: visiblepainted;"></path><g ><g id="v-5430"  label-idx="0" cursor="move" transform="matrix(1,0,0,1,794,653.5999755859375)" style="cursor: default; opacity: 1;"><rect joint-selector="rect" id="v-5434" fill="#111111" rx="3" ry="3" pointer-events="none" width="158.53428649902344" height="177.096923828125" transform="matrix(1,0,0,1,-79.30000305175781,-88.5999984741211)"></rect><text joint-selector="text" id="v-5433" font-size="24px" xml:space="preserve" y="0.8em" fill="#cccccc" text-anchor="middle" pointer-events="none" font-family="Open Sans, Tahoma, Arial" font-weight="normal" transform="matrix(1,0,0,1,0,-82.0999984741211)"><tspan  dy="0">Reads player</tspan><tspan dy="1.2em" x="0" >telemetry</tspan><tspan dy="1.2em" x="0" >through Guild</tspan><tspan dy="1.2em" x="0" >Wars 2</tspan><tspan dy="1.2em" x="0" >MumbleLink</tspan><tspan dy="1.2em" x="0" >abstraction</tspan></text></g><g id="v-5431"  label-idx="1" cursor="move" transform="matrix(1,0,0,1,794,756)" style="cursor: default; opacity: 1;"><rect joint-selector="rect" id="v-5436" fill="#111111" rx="3" ry="3"  pointer-events="none" width="186.6666717529297" height="23.16784954071045" transform="matrix(1,0,0,1,-93.30000305175781,-11.600000381469727)" style="display: block;"></rect><text joint-selector="text" id="v-5435" font-size="16.799999999999997px" xml:space="preserve" y="0.8em" fill="#cccccc" text-anchor="middle" pointer-events="none"  font-family="Open Sans, Tahoma, Arial" font-weight="normal" transform="matrix(1,0,0,1,0,-6.800000190734863)" style="display: block;"><tspan  dy="0">[Blish HUD Module API]</tspan></text></g><g id="v-5432"  label-idx="2" cursor="move" transform="matrix(1,0,0,1,784,764.4000244140625)" style="cursor: default; opacity: 1;"><rect joint-selector="rect" id="v-5438" fill="#ffffff" rx="3" ry="3"  width="0" height="0" transform="matrix(1,0,0,1,0,0)" display="none"></rect><text joint-selector="text" id="v-5437" fill="#000000" font-size="14" text-anchor="middle" pointer-events="none"></text></g></g><g  display="none" style="display: none;"></g><g  id="v-5443" display="none"><g  id="v-5428"><path  end="source" d="M 26 0 L 0 13 L 26 26 z"></path></g><g  id="v-5429"><path  end="target" d="M 26 0 L 0 13 L 26 26 z"></path></g></g><g  id="v-5442" display="none"><g  id="v-5427" transform="translate(962.9624780164831, 518.4149062669119) "><g  event="remove"><circle r="11"></circle><path transform="scale(.8) translate(-16, -16)" d="M24.778,21.419 19.276,15.917 24.777,10.415 21.949,7.585 16.447,13.087 10.945,7.585 8.117,10.415 13.618,15.917 8.116,21.419 10.946,24.248 16.447,18.746 21.948,24.248z"></path><title>Remove link.</title></g><g  event="link:options"><circle r="11" transform="translate(25)"></circle><path fill="white" transform="scale(.55) translate(29, -16)" d="M31.229,17.736c0.064-0.571,0.104-1.148,0.104-1.736s-0.04-1.166-0.104-1.737l-4.377-1.557c-0.218-0.716-0.504-1.401-0.851-2.05l1.993-4.192c-0.725-0.91-1.549-1.734-2.458-2.459l-4.193,1.994c-0.647-0.347-1.334-0.632-2.049-0.849l-1.558-4.378C17.165,0.708,16.588,0.667,16,0.667s-1.166,0.041-1.737,0.105L12.707,5.15c-0.716,0.217-1.401,0.502-2.05,0.849L6.464,4.005C5.554,4.73,4.73,5.554,4.005,6.464l1.994,4.192c-0.347,0.648-0.632,1.334-0.849,2.05l-4.378,1.557C0.708,14.834,0.667,15.412,0.667,16s0.041,1.165,0.105,1.736l4.378,1.558c0.217,0.715,0.502,1.401,0.849,2.049l-1.994,4.193c0.725,0.909,1.549,1.733,2.459,2.458l4.192-1.993c0.648,0.347,1.334,0.633,2.05,0.851l1.557,4.377c0.571,0.064,1.148,0.104,1.737,0.104c0.588,0,1.165-0.04,1.736-0.104l1.558-4.377c0.715-0.218,1.399-0.504,2.049-0.851l4.193,1.993c0.909-0.725,1.733-1.549,2.458-2.458l-1.993-4.193c0.347-0.647,0.633-1.334,0.851-2.049L31.229,17.736zM16,20.871c-2.69,0-4.872-2.182-4.872-4.871c0-2.69,2.182-4.872,4.872-4.872c2.689,0,4.871,2.182,4.871,4.872C20.871,18.689,18.689,20.871,16,20.871z"></path><title>Link options.</title></g></g></g></g><!--z-index:18--><g   id="j_433" ><path  stroke="#cccccc" d="M 1166 492 L 1172 842" id="v-5459" stroke-width="2" stroke-dasharray="8 8" fill="none" style="opacity: 1;"></path><path  fill="black" stroke="black" d="M 0 0 0 0" transform="matrix(0.018453992903232574,0.9998297095298767,-0.9998297095298767,0.018453992903232574,1165.77001953125,492)"></path><path  fill="#cccccc" stroke="#cccccc" d="M 20 0 L 0 10 L 20 20 z" id="v-5461" transform="matrix(-0.01845412701368332,-0.9998297095298767,0.9998297095298767,-0.01845412701368332,1162.231689453125,842.1845703125)" style="opacity: 1;"></path><path  d="M 1166 492 L 1172 842" id="v-5460" fill="none" style="cursor: auto; pointer-events: visiblepainted;"></path><g ><g id="v-5450"  label-idx="0" cursor="move" transform="matrix(1,0,0,1,1169,653.5999755859375)" style="cursor: default; opacity: 1;"><rect joint-selector="rect" id="v-5454" fill="#111111" rx="3" ry="3" pointer-events="none" width="177.95114135742188" height="177.096923828125" transform="matrix(1,0,0,1,-89,-88.5999984741211)"></rect><text joint-selector="text" id="v-5453" font-size="24px" xml:space="preserve" y="0.8em" fill="#cccccc" text-anchor="middle" pointer-events="none" font-family="Open Sans, Tahoma, Arial" font-weight="normal" transform="matrix(1,0,0,1,0,-82.0999984741211)"><tspan  dy="0">Verifies</tspan><tspan dy="1.2em" x="0" >subtokens and</tspan><tspan dy="1.2em" x="0" >links characters</tspan><tspan dy="1.2em" x="0" >to JWT</tspan><tspan dy="1.2em" x="0" >authentication</tspan><tspan dy="1.2em" x="0" >claims</tspan></text></g><g id="v-5451"  label-idx="1" cursor="move" transform="matrix(1,0,0,1,1169,756)" style="cursor: default; opacity: 1;"><rect joint-selector="rect" id="v-5456" fill="#111111" rx="3" ry="3"  pointer-events="none" width="108.75098419189453" height="23.16784954071045" transform="matrix(1,0,0,1,-54.400001525878906,-11.600000381469727)" style="display: block;"></rect><text joint-selector="text" id="v-5455" font-size="16.799999999999997px" xml:space="preserve" y="0.8em" fill="#cccccc" text-anchor="middle" pointer-events="none"  font-family="Open Sans, Tahoma, Arial" font-weight="normal" transform="matrix(1,0,0,1,0,-6.800000190734863)" style="display: block;"><tspan  dy="0">[HTTPS/REST]</tspan></text></g><g id="v-5452"  label-idx="2" cursor="move" transform="matrix(1,0,0,1,1159,764.4000244140625)" style="cursor: default; opacity: 1;"><rect joint-selector="rect" id="v-5458" fill="#ffffff" rx="3" ry="3"  width="0" height="0" transform="matrix(1,0,0,1,0,0)" display="none"></rect><text joint-selector="text" id="v-5457" fill="#000000" font-size="14" text-anchor="middle" pointer-events="none"></text></g></g><g  display="none" style="display: none;"></g><g  id="v-5463" display="none"><g  id="v-5448"><path  end="source" d="M 26 0 L 0 13 L 26 26 z"></path></g><g  id="v-5449"><path  end="target" d="M 26 0 L 0 13 L 26 26 z"></path></g></g><g  id="v-5462" display="none"><g  id="v-5447" transform="translate(1166.6856135498992, 531.9941237441227) "><g  event="remove"><circle r="11"></circle><path transform="scale(.8) translate(-16, -16)" d="M24.778,21.419 19.276,15.917 24.777,10.415 21.949,7.585 16.447,13.087 10.945,7.585 8.117,10.415 13.618,15.917 8.116,21.419 10.946,24.248 16.447,18.746 21.948,24.248z"></path><title>Remove link.</title></g><g  event="link:options"><circle r="11" transform="translate(25)"></circle><path fill="white" transform="scale(.55) translate(29, -16)" d="M31.229,17.736c0.064-0.571,0.104-1.148,0.104-1.736s-0.04-1.166-0.104-1.737l-4.377-1.557c-0.218-0.716-0.504-1.401-0.851-2.05l1.993-4.192c-0.725-0.91-1.549-1.734-2.458-2.459l-4.193,1.994c-0.647-0.347-1.334-0.632-2.049-0.849l-1.558-4.378C17.165,0.708,16.588,0.667,16,0.667s-1.166,0.041-1.737,0.105L12.707,5.15c-0.716,0.217-1.401,0.502-2.05,0.849L6.464,4.005C5.554,4.73,4.73,5.554,4.005,6.464l1.994,4.192c-0.347,0.648-0.632,1.334-0.849,2.05l-4.378,1.557C0.708,14.834,0.667,15.412,0.667,16s0.041,1.165,0.105,1.736l4.378,1.558c0.217,0.715,0.502,1.401,0.849,2.049l-1.994,4.193c0.725,0.909,1.549,1.733,2.459,2.458l4.192-1.993c0.648,0.347,1.334,0.633,2.05,0.851l1.557,4.377c0.571,0.064,1.148,0.104,1.737,0.104c0.588,0,1.165-0.04,1.736-0.104l1.558-4.377c0.715-0.218,1.399-0.504,2.049-0.851l4.193,1.993c0.909-0.725,1.733-1.549,2.458-2.458l-1.993-4.193c0.347-0.647,0.633-1.334,0.851-2.049L31.229,17.736zM16,20.871c-2.69,0-4.872-2.182-4.872-4.871c0-2.69,2.182-4.872,4.872-4.872c2.689,0,4.871,2.182,4.871,4.872C20.871,18.689,18.689,20.871,16,20.871z"></path><title>Link options.</title></g></g></g></g><!--z-index:19--><!--z-index:20--><!--z-index:21--><!--z-index:22--><!--z-index:23--><!--z-index:24--><!--z-index:25--><!--z-index:26--><!--z-index:27--><!--z-index:28--><!--z-index:29--><!--z-index:30--><!--z-index:31--><!--z-index:32--><!--z-index:33--><!--z-index:34--><!--z-index:35--><!--z-index:36--><!--z-index:37--><!--z-index:38--><!--z-index:39--><!--z-index:40--><!--z-index:41--><!--z-index:42--><!--z-index:43--><!--z-index:44--><!--z-index:45--><!--z-index:46--><!--z-index:47--><!--z-index:48--><!--z-index:49--><!--z-index:50--><!--z-index:51--><!--z-index:52--><!--z-index:53--><!--z-index:54--><!--z-index:55--><!--z-index:56--><!--z-index:57--><!--z-index:58--><!--z-index:59--><!--z-index:60--><!--z-index:61--><!--z-index:62--><!--z-index:63--><!--z-index:64--><!--z-index:65--><!--z-index:66--><!--z-index:67--></g><g ></g><g ></g><g ></g></g></svg>